<?xml version="1.0" standalone="no"?>
<!DOCTYPE svg PUBLIC "-//W3C//DTD SVG 20010904//EN"
 "http://www.w3.org/TR/2001/REC-SVG-20010904/DTD/svg10.dtd">
<svg version="1.0" xmlns="http://www.w3.org/2000/svg"
 width="512.000000pt" height="512.000000pt" viewBox="0 0 512.000000 512.000000"
 preserveAspectRatio="xMidYMid meet">
<metadata>
Created by potrace 1.11, written by Peter Selinger 2001-2013
</metadata>
<g transform="translate(0.000000,512.000000) scale(0.100000,-0.100000)"
fill="#000000" stroke="none">
<path d="M2365 5114 c-16 -2 -73 -9 -125 -15 -544 -62 -1089 -328 -1490 -729
-401 -401 -651 -910 -732 -1490 -17 -125 -17 -515 0 -640 81 -580 331 -1089
732 -1490 401 -401 910 -651 1490 -732 125 -17 515 -17 640 0 580 81 1089 331
1490 732 401 401 651 910 732 1490 17 125 17 515 0 640 -81 580 -331 1089
-732 1490 -394 393 -892 642 -1455 726 -95 14 -486 27 -550 18z m-95 -1250 l0
-101 -123 -6 c-131 -7 -179 -18 -214 -50 l-23 -20 0 -810 c0 -682 2 -826 16
-915 47 -318 172 -474 430 -539 97 -24 398 -24 504 0 238 54 363 198 416 477
16 86 18 175 22 929 2 585 0 842 -8 860 -6 15 -19 32 -30 39 -28 17 -139 32
-247 32 l-93 0 0 103 0 102 520 3 520 3 0 -104 0 -104 -119 -6 c-120 -5 -196
-26 -217 -58 -5 -8 -11 -394 -15 -859 -4 -758 -7 -855 -23 -940 -86 -453 -307
-671 -746 -736 -153 -22 -478 -15 -620 15 -205 42 -339 108 -456 225 -123 125
-195 300 -229 559 -12 98 -15 254 -15 912 0 501 -4 803 -10 820 -16 41 -67 56
-217 62 l-133 6 0 101 0 101 555 0 555 0 0 -101z"/>
</g>
</svg>
